# xmcd CD database file
#
# Track frame offsets:
#	150
#	21050
#	41227
#	45805
#	62695
#	76702
#	98637
#	119794
#	146779
#	167431
#	190228
#	228475
#	250200
#	275522
#	282188
#
# Disc length: 4077 seconds
#
# Revision: 0
# Processed by: cddbd v1.5.2PL0 Copyright (c) Steve Scherf et al.
# Submitted via: CDex 1.70beta2
#
DISCID=ca0feb0f
DTITLE=BOOM BOOM SATELLITES - 19972007. - Disc1
DYEAR=2010
DGENRE=Big Beat
TTITLE0=KICK IT OUT
TTITLE1=WHAT GOES ROUND COMES AROUND
TTITLE2=LOOKING GLASS
TTITLE3=PILL
TTITLE4=MORNING AFTER
TTITLE5=LIGHT MY FIRE
TTITLE6=LET IT ALL COME DOWN
TTITLE7=40-FORTY-
TTITLE8=GIRL
TTITLE9=MOMENT I COUNT
TTITLE10=ON THE PAINTED DESERT
TTITLE11=INTERGALACTIC
TTITLE12=SOLILOQUY
TTITLE13=PANACEA
TTITLE14=STRIDE
EXTD=YEAR: 2010
EXTT0=
EXTT1=
EXTT2=
EXTT3=
EXTT4=
EXTT5=
EXTT6=
EXTT7=
EXTT8=
EXTT9=
EXTT10=
EXTT11=
EXTT12=
EXTT13=
EXTT14=
PLAYORDER=
